<svg width="455" height="259" viewBox="0 0 455 259" fill="none" xmlns="http://www.w3.org/2000/svg">
<path d="M70.7398 256.169L70.0063 255.744C70.2123 255.412 90.6625 222.492 93.8464 214.29L94.6479 214.581C91.4359 222.853 71.583 254.813 70.7398 256.169Z" fill="#8B9D36"/>
<path d="M87.3159 197.027C88.1815 199.096 88.8433 201.239 89.2926 203.427C89.752 205.571 90.0893 207.737 90.3029 209.916C90.5223 212.095 90.6152 214.284 90.5812 216.472C90.5683 218.704 90.3346 220.929 89.8834 223.118C89.0137 221.051 88.3502 218.908 87.9021 216.718C87.442 214.575 87.1062 212.409 86.8964 210.229C86.6811 208.05 86.5898 205.861 86.6228 203.673C86.637 201.442 86.8691 199.217 87.3159 197.027V197.027Z" fill="#8B9D36"/>
<path d="M79.7689 206.996C80.8229 208.923 81.6818 210.944 82.3339 213.03C82.9913 215.07 83.5294 217.143 83.9454 219.241C84.3669 221.338 84.6639 223.457 84.8349 225.586C85.0302 227.758 85.0056 229.943 84.7614 232.11C83.7035 230.185 82.8429 228.164 82.1918 226.077C81.534 224.037 80.9975 221.963 80.5849 219.865C80.167 217.767 79.8716 215.648 79.7 213.519C79.5059 211.347 79.5289 209.163 79.7689 206.996V206.996Z" fill="#8B9D36"/>
<path d="M75.6102 218.601C76.5383 220.392 77.2701 222.272 77.7937 224.21C78.3222 226.098 78.7302 228.015 79.0154 229.951C79.3059 231.887 79.471 233.838 79.5096 235.793C79.5697 237.796 79.41 239.799 79.0333 241.769C78.1011 239.979 77.3676 238.099 76.8452 236.16C76.3159 234.273 75.9094 232.355 75.6281 230.418C75.3412 228.482 75.1777 226.531 75.1385 224.576C75.0795 222.574 75.2376 220.571 75.6102 218.601V218.601Z" fill="#8B9D36"/>
<path d="M70.3734 230.185C71.3053 231.685 72.0485 233.288 72.5874 234.958C73.1266 236.572 73.5466 238.22 73.8442 239.891C74.1476 241.561 74.3256 243.25 74.3769 244.945C74.4503 246.693 74.3048 248.444 73.9437 250.159C73.0079 248.661 72.2629 247.058 71.7251 245.387C71.1852 243.774 70.7666 242.125 70.4724 240.453C70.1731 238.783 69.9966 237.094 69.9443 235.399C69.8722 233.651 70.0163 231.9 70.3734 230.185V230.185Z" fill="#8B9D36"/>
<path d="M65.7528 237.425C66.7035 238.726 67.4883 240.133 68.0901 241.616C68.6799 243.032 69.1709 244.485 69.5596 245.964C69.9447 247.432 70.241 248.921 70.447 250.422C70.5431 251.179 70.6313 251.932 70.6898 252.699C70.72 253.48 70.8063 254.259 70.948 255.029C70.7503 254.927 70.5604 254.811 70.3797 254.683L69.9185 254.237C69.6244 253.932 69.3547 253.606 69.1117 253.262C68.6433 252.598 68.2286 251.901 67.8712 251.176C67.177 249.767 66.6316 248.294 66.2434 246.779C65.8474 245.277 65.591 243.745 65.4771 242.2C65.3389 240.604 65.4317 238.997 65.7528 237.425V237.425Z" fill="#8B9D36"/>
<path d="M91.8037 219.553C93.3566 217.908 95.1038 216.444 97.0097 215.192C98.8459 213.96 100.769 212.853 102.764 211.878C104.756 210.897 106.818 210.054 108.933 209.355C111.106 208.611 113.363 208.119 115.656 207.889C114.107 209.538 112.36 211.003 110.453 212.254C108.617 213.487 106.693 214.593 104.696 215.564C102.701 216.54 100.639 217.382 98.5239 218.082C96.3511 218.824 94.0956 219.318 91.8037 219.553V219.553Z" fill="#8B9D36"/>
<path d="M86.6904 228.78C88.6763 227.211 90.8286 225.85 93.1114 224.719C95.3284 223.596 97.6155 222.606 99.9594 221.757C102.301 220.901 104.696 220.189 107.13 219.625C109.619 219.022 112.168 218.679 114.732 218.601C112.749 220.174 110.597 221.537 108.314 222.667C106.097 223.791 103.809 224.779 101.464 225.624C99.1204 226.476 96.7248 227.186 94.2905 227.751C91.8019 228.352 89.2543 228.697 86.6904 228.78V228.78Z" fill="#8B9D36"/>
<path d="M80.6709 239.035C82.439 237.519 84.381 236.204 86.4589 235.115C88.467 234.038 90.5483 233.093 92.6885 232.287C94.8261 231.475 97.0192 230.807 99.252 230.286C101.545 229.726 103.897 229.425 106.261 229.388C104.496 230.908 102.554 232.225 100.475 233.314C98.4673 234.392 96.3851 235.335 94.2432 236.136C92.1038 236.944 89.9103 237.611 87.6777 238.132C85.3854 238.69 83.0345 238.993 80.6709 239.035Z" fill="#8B9D36"/>
<path d="M75.9136 246.929C77.4538 245.64 79.163 244.552 80.9971 243.694C82.7518 242.851 84.5729 242.144 86.4434 241.579C88.312 241.008 90.2253 240.584 92.1645 240.311C94.1782 240.004 96.2253 239.957 98.2517 240.172C96.7141 241.465 95.0051 242.555 93.1698 243.412C91.4155 244.256 89.5934 244.961 87.7215 245.522C85.8516 246.089 83.9381 246.511 81.9991 246.785C79.9859 247.091 77.9398 247.139 75.9136 246.929Z" fill="#8B9D36"/>
<path d="M72.1582 254.012C73.8515 252.442 75.7265 251.066 77.7461 249.911C79.6958 248.77 81.7239 247.759 83.8161 246.886C85.9056 246.006 88.0559 245.267 90.2514 244.675C92.5056 244.041 94.8286 243.664 97.1733 243.551C95.4832 245.125 93.6087 246.503 91.5879 247.657C89.6386 248.798 87.6095 249.807 85.5154 250.677C83.4241 251.553 81.2733 252.29 79.0781 252.883C76.8241 253.515 74.5021 253.894 72.1582 254.012Z" fill="#8B9D36"/>
<path d="M93.4653 215.626C93.1529 213.421 93.2092 211.183 93.6321 208.996C94.0043 206.935 94.5901 204.914 95.3806 202.966C96.1637 201.015 97.1511 199.146 98.3275 197.388C99.5536 195.504 101.088 193.824 102.872 192.415C103.191 194.619 103.138 196.859 102.713 199.047C102.342 201.109 101.753 203.128 100.957 205.075C100.168 207.024 99.1781 208.891 98.0024 210.649C96.7758 212.532 95.2439 214.212 93.4653 215.626V215.626Z" fill="#8B9D36"/>
<path d="M67.5981 257.52L66.7422 257.507C66.7805 255.249 67.7955 201.998 78.8226 185.132L79.5458 185.574C68.6464 202.244 67.6075 256.97 67.5981 257.52Z" fill="#50661A"/>
<path d="M75.6411 192.739C75.9802 190.268 76.0662 187.772 75.8976 185.285C75.7554 182.862 75.477 180.448 75.0637 178.054C74.6642 175.669 74.1207 173.308 73.4814 170.967C72.843 168.611 72.0366 166.343 71.1751 163.928C70.9317 164.528 70.7469 165.148 70.6231 165.781C70.4852 166.403 70.3844 167.032 70.3215 167.664C70.1879 168.906 70.1299 170.154 70.1477 171.403C70.1854 173.859 70.4183 176.308 70.8442 178.729C71.2587 181.143 71.8451 183.527 72.599 185.863C73.3445 188.257 74.3649 190.564 75.6411 192.739V192.739Z" fill="#50661A"/>
<path d="M89.1955 159.018C87.3002 160.784 85.6749 162.801 84.3685 165.009C83.0961 167.104 82.0137 169.301 81.1334 171.576C80.2451 173.848 79.5656 176.191 79.1028 178.578C78.5853 181.073 78.4426 183.627 78.6791 186.161C80.58 184.4 82.2082 182.383 83.5137 180.173C84.7872 178.079 85.8673 175.881 86.7413 173.603C87.6235 171.329 88.3004 168.985 88.7644 166.598C89.2802 164.104 89.4254 161.552 89.1955 159.018Z" fill="#50661A"/>
<path d="M98.2827 172.589C96.034 174.335 93.9103 176.225 91.9261 178.247C89.9615 180.215 88.0868 182.226 86.2525 184.248L80.803 190.289C79.8888 191.279 78.965 192.253 77.989 193.177C77.0246 194.155 75.9014 194.975 74.6636 195.603C75.4185 195.731 76.1922 195.712 76.9394 195.548C77.6931 195.403 78.4282 195.179 79.1321 194.882C80.5098 194.297 81.8189 193.571 83.0374 192.718C85.4023 191.046 87.5608 189.117 89.4706 186.969C91.3702 184.865 93.0804 182.608 94.5825 180.223C96.1288 177.832 97.3712 175.268 98.2827 172.589V172.589Z" fill="#50661A"/>
<path d="M98.2832 186.161C95.5111 187.498 92.8668 189.069 90.381 190.856C87.9212 192.594 85.5548 194.451 83.2911 196.422C81.0225 198.388 78.8612 200.466 76.8158 202.648C74.7154 204.849 72.8228 207.227 71.1606 209.754C73.9355 208.421 76.5815 206.851 79.067 205.063C81.5274 203.326 83.8926 201.467 86.1531 199.492C88.4186 197.524 90.5784 195.444 92.6243 193.262C94.7234 191.061 96.6171 188.685 98.2832 186.161V186.161Z" fill="#50661A"/>
<path d="M97.3589 196.809C94.5662 198.065 91.8945 199.557 89.3752 201.269C86.8834 202.933 84.4817 204.719 82.1796 206.621C79.8729 208.517 77.6704 210.529 75.581 212.647C73.4361 214.783 71.4942 217.102 69.7788 219.574C72.5742 218.323 75.2476 216.831 77.7666 215.118C80.2588 213.455 82.6592 211.667 84.9581 209.762C87.2618 207.862 89.463 205.85 91.553 203.732C93.6967 201.595 95.6396 199.278 97.3589 196.809V196.809Z" fill="#50661A"/>
<path d="M96.7427 208.191C93.9636 209.201 91.2866 210.455 88.7457 211.939C86.2374 213.375 83.8104 214.94 81.4748 216.626C79.135 218.306 76.8914 220.109 74.7538 222.024C72.5581 223.956 70.5536 226.08 68.7661 228.371C71.5474 227.366 74.2257 226.113 76.7665 224.628C79.2751 223.192 81.7012 221.626 84.034 219.936C86.3709 218.252 88.6132 216.449 90.7512 214.534C92.9457 212.602 94.9513 210.479 96.7427 208.191Z" fill="#50661A"/>
<path d="M97.3586 216.449C94.4511 217.579 91.6514 218.952 88.9914 220.553C86.361 222.107 83.8133 223.789 81.3583 225.591C78.8988 227.387 76.5364 229.305 74.2805 231.336C71.9686 233.38 69.8482 235.618 67.9443 238.023C70.8541 236.898 73.6552 235.526 76.3149 233.924C78.9458 232.37 81.4924 230.687 83.9446 228.881C86.4013 227.081 88.7623 225.162 91.0187 223.132C93.3294 221.087 95.4508 218.851 97.3586 216.449V216.449Z" fill="#50661A"/>
<path d="M99.5151 224.186C96.4879 225.546 93.5651 227.113 90.7689 228.875C87.9921 230.592 85.3056 232.407 82.6863 234.302C80.0595 236.185 77.5054 238.149 74.9964 240.178C72.4615 242.19 70.067 244.285 67.4443 246.36C69.1284 246.093 70.7728 245.629 72.3416 244.98C73.8948 244.352 75.4128 243.647 76.8891 242.865C79.7929 241.296 82.5849 239.541 85.2462 237.612C87.8981 235.691 90.433 233.625 92.8384 231.423C95.2893 229.214 97.5243 226.791 99.5151 224.186Z" fill="#50661A"/>
<path d="M102.134 232.22C98.8624 233.448 95.6882 234.906 92.6364 236.58C89.6035 238.212 86.6599 239.965 83.7841 241.809C80.9078 243.654 78.1009 245.593 75.3634 247.627C73.9951 248.647 72.6398 249.685 71.2976 250.741C69.9993 251.853 68.62 252.873 67.1704 253.794C68.0794 253.795 68.9818 253.645 69.8386 253.352C70.6984 253.106 71.5332 252.806 72.3589 252.495C74.0055 251.864 75.5965 251.141 77.1571 250.376C80.2548 248.835 83.2584 247.123 86.1531 245.249C89.0473 243.389 91.8421 241.389 94.5265 239.255C97.2591 237.117 99.8035 234.764 102.134 232.22V232.22Z" fill="#50661A"/>
<path d="M72.9865 202.191C72.8475 199.506 72.4363 196.842 71.7589 194.235C71.1194 191.675 70.329 189.153 69.3916 186.681C68.4609 184.206 67.3822 181.786 66.161 179.432C64.9383 177.017 63.4707 174.725 61.7798 172.589C61.9138 175.275 62.323 177.941 63.0015 180.548C63.6406 183.107 64.433 185.629 65.3747 188.1C66.3097 190.573 67.3902 192.993 68.6107 195.347C69.8342 197.761 71.2998 200.053 72.9865 202.191V202.191Z" fill="#50661A"/>
<path d="M71.1602 211.482C70.6355 208.811 69.8438 206.197 68.7962 203.674C67.7927 201.193 66.6449 198.769 65.3584 196.413C64.0783 194.054 62.659 191.767 61.1076 189.565C59.5466 187.303 57.7596 185.195 55.7725 183.27C56.2924 185.942 57.0824 188.558 58.131 191.08C59.1342 193.561 60.2838 195.985 61.5742 198.339C62.8585 200.696 64.2794 202.981 65.8301 205.184C67.392 207.444 69.1771 209.554 71.1602 211.482V211.482Z" fill="#50661A"/>
<path d="M69.779 220.466C68.8789 217.756 67.7205 215.131 66.3186 212.628C64.9642 210.158 63.4734 207.761 61.8526 205.446C60.2375 203.127 58.4923 200.895 56.6249 198.761C54.7434 196.569 52.6533 194.553 50.3818 192.739C51.2773 195.451 52.4343 198.077 53.8376 200.58C55.1912 203.05 56.6837 205.447 58.3087 207.759C59.9274 210.075 61.6741 212.306 63.541 214.441C65.423 216.631 67.5112 218.648 69.779 220.466V220.466Z" fill="#50661A"/>
<path d="M68.7664 230.378C67.3549 227.449 65.698 224.635 63.8123 221.966C61.971 219.311 60.0063 216.754 57.9182 214.295C55.837 211.83 53.6353 209.461 51.3129 207.186C48.9813 204.868 46.4546 202.741 43.7588 200.827C45.1648 203.76 46.8203 206.575 48.7082 209.243C50.5495 211.897 52.5156 214.453 54.6066 216.91C56.6927 219.371 58.896 221.74 61.2164 224.015C63.5493 226.332 66.0744 228.46 68.7664 230.378V230.378Z" fill="#50661A"/>
<path d="M67.9444 240.657C66.2139 237.872 64.252 235.227 62.0779 232.749C59.9495 230.281 57.7087 227.922 55.3556 225.673C53.0091 223.418 50.5528 221.27 47.9866 219.228C45.4067 217.143 42.6531 215.269 39.7539 213.622C41.4793 216.411 43.4401 219.057 45.6163 221.534C47.7446 224.002 49.9867 226.359 52.3423 228.605C54.6933 230.857 57.1511 233.004 59.7155 235.047C62.2965 237.13 65.0486 239.006 67.9444 240.657V240.657Z" fill="#50661A"/>
<path d="M67.4445 247.247C65.525 244.844 63.3924 242.608 61.0708 240.562C58.8035 238.532 56.4319 236.613 53.9649 234.813C51.5025 233.007 48.9459 231.324 46.3051 229.771C43.6355 228.169 40.8248 226.798 37.9058 225.674C39.8216 228.08 41.9533 230.318 44.2762 232.363C46.5429 234.394 48.9157 236.312 51.3854 238.108C53.8508 239.91 56.4086 241.592 59.0489 243.146C61.7188 244.746 64.528 246.118 67.4445 247.247V247.247Z" fill="#50661A"/>
<path d="M67.1705 252.752C64.8677 250.559 62.3767 248.559 59.7241 246.772C57.1203 244.984 54.4372 243.329 51.6749 241.809C48.9169 240.281 46.0817 238.884 43.1694 237.617C40.2306 236.312 37.1813 235.253 34.0552 234.452C36.3548 236.649 38.8452 238.651 41.499 240.437C44.1028 242.225 46.7867 243.878 49.5507 245.395C52.3117 246.918 55.1478 248.314 58.0591 249.583C60.9981 250.886 64.0461 251.946 67.1705 252.752V252.752Z" fill="#50661A"/>
<path d="M67.3831 256.323C64.6202 254.482 61.7066 252.861 58.6713 251.476C55.6822 250.082 52.6346 248.84 49.5374 247.728C46.4405 246.616 43.2895 245.644 40.0843 244.813C36.8482 243.949 33.5437 243.345 30.2046 243.007C32.9645 244.854 35.8777 246.477 38.9144 247.86C41.9039 249.253 44.9492 250.501 48.0504 251.602C51.1493 252.71 54.2984 253.687 57.5055 254.513C60.7417 255.374 64.0452 255.98 67.3831 256.323V256.323Z" fill="#50661A"/>
<path d="M65.8858 256.039C65.0426 254.682 45.1896 222.722 41.9785 214.451L42.78 214.16C45.9631 222.362 66.4133 255.282 66.6192 255.613L65.8858 256.039Z" fill="#5E7C24"/>
<path d="M49.2667 197.027C48.4011 199.096 47.7393 201.239 47.29 203.427C46.8306 205.571 46.4933 207.737 46.2797 209.916C46.0604 212.095 45.9675 214.284 46.0015 216.472C46.0144 218.704 46.248 220.929 46.6992 223.118C47.569 221.051 48.2324 218.908 48.6805 216.718C49.1406 214.575 49.4764 212.409 49.6862 210.229C49.9015 208.05 49.9928 205.861 49.9598 203.673C49.9456 201.442 49.7135 199.217 49.2667 197.027V197.027Z" fill="#5E7C24"/>
<path d="M56.8143 206.996C55.7603 208.923 54.9013 210.944 54.2493 213.03C53.5918 215.07 53.0538 217.143 52.6378 219.241C52.2163 221.338 51.9193 223.457 51.7482 225.586C51.553 227.758 51.5776 229.943 51.8218 232.11C52.8797 230.185 53.7403 228.164 54.3914 226.077C55.0492 224.037 55.5857 221.963 55.9983 219.865C56.4162 217.767 56.7116 215.648 56.8832 213.519C57.0773 211.347 57.0542 209.163 56.8143 206.996V206.996Z" fill="#5E7C24"/>
<path d="M60.9728 218.601C60.0447 220.392 59.3128 222.272 58.7893 224.21C58.2607 226.098 57.8527 228.015 57.5676 229.951C57.2771 231.887 57.112 233.838 57.0733 235.793C57.0133 237.796 57.173 239.799 57.5497 241.769C58.4819 239.979 59.2154 238.099 59.7378 236.16C60.2671 234.273 60.6736 232.355 60.9549 230.418C61.2418 228.482 61.4053 226.531 61.4445 224.576C61.5035 222.574 61.3454 220.571 60.9728 218.601V218.601Z" fill="#5E7C24"/>
<path d="M66.2095 230.185C65.2776 231.685 64.5344 233.288 63.9955 234.958C63.4563 236.572 63.0363 238.22 62.7387 239.891C62.4353 241.561 62.2573 243.25 62.2059 244.945C62.1326 246.693 62.2781 248.444 62.6392 250.159C63.575 248.661 64.32 247.058 64.8578 245.387C65.3977 243.774 65.8163 242.125 66.1104 240.453C66.4098 238.783 66.5863 237.094 66.6386 235.399C66.7107 233.651 66.5666 231.9 66.2095 230.185V230.185Z" fill="#5E7C24"/>
<path d="M70.8304 237.425C69.8797 238.726 69.095 240.133 68.4931 241.616C67.9033 243.032 67.4124 244.485 67.0237 245.964C66.6385 247.432 66.3422 248.921 66.1362 250.422C66.0401 251.179 65.952 251.932 65.8935 252.699C65.8632 253.48 65.7769 254.259 65.6353 255.029C65.8329 254.927 66.0228 254.811 66.2035 254.683L66.6648 254.237C66.9588 253.932 67.2285 253.606 67.4716 253.262C67.94 252.598 68.3547 251.901 68.7121 251.176C69.4063 249.767 69.9516 248.294 70.3399 246.779C70.7358 245.277 70.9923 243.745 71.1061 242.2C71.2443 240.604 71.1515 238.997 70.8304 237.425V237.425Z" fill="#5E7C24"/>
<path d="M44.7786 219.553C43.2257 217.908 41.4784 216.444 39.5726 215.192C37.7364 213.96 35.8137 212.853 33.8184 211.878C31.8261 210.897 29.7645 210.054 27.6489 209.355C25.476 208.611 23.2193 208.119 20.9263 207.889C22.4757 209.538 24.2223 211.003 26.1293 212.254C27.9652 213.487 29.889 214.593 31.8864 215.564C33.8808 216.54 35.9431 217.382 38.0584 218.082C40.2312 218.824 42.4867 219.318 44.7786 219.553V219.553Z" fill="#5E7C24"/>
<path d="M49.8928 228.78C47.907 227.211 45.7546 225.85 43.4718 224.719C41.2548 223.596 38.9678 222.606 36.6238 221.757C34.2824 220.901 31.8873 220.189 29.4528 219.625C26.9641 219.022 24.4156 218.679 21.8511 218.601C23.8341 220.174 25.9858 221.537 28.2696 222.667C30.4861 223.791 32.7741 224.779 35.1197 225.624C37.4628 226.476 39.8584 227.186 42.2927 227.751C44.7814 228.352 47.329 228.697 49.8928 228.78V228.78Z" fill="#5E7C24"/>
<path d="M55.9122 239.035C54.1441 237.519 52.2021 236.204 50.1242 235.115C48.1161 234.038 46.0348 233.093 43.8946 232.287C41.757 231.475 39.564 230.807 37.3311 230.286C35.0386 229.726 32.6866 229.425 30.3223 229.388C32.0875 230.908 34.0291 232.225 36.1082 233.314C38.1158 234.392 40.198 235.335 42.3399 236.136C44.4793 236.944 46.6728 237.611 48.9055 238.132C51.1977 238.69 53.5486 238.993 55.9122 239.035V239.035Z" fill="#5E7C24"/>
<path d="M60.6692 246.929C59.129 245.64 57.4198 244.552 55.5856 243.694C53.8309 242.851 52.0098 242.144 50.1394 241.579C48.2708 241.008 46.3575 240.584 44.4182 240.311C42.4045 240.004 40.3575 239.957 38.3311 240.172C39.8687 241.465 41.5777 242.555 43.413 243.412C45.1673 244.256 46.9893 244.961 48.8613 245.522C50.7312 246.089 52.6447 246.511 54.5837 246.785C56.5969 247.091 58.6429 247.139 60.6692 246.929V246.929Z" fill="#5E7C24"/>
<path d="M64.4248 254.012C62.7315 252.442 60.8565 251.066 58.8369 249.911C56.8871 248.77 54.8591 247.759 52.7669 246.886C50.6774 246.006 48.5271 245.267 46.3316 244.675C44.0774 244.041 41.7544 243.664 39.4097 243.551C41.0998 245.125 42.9742 246.503 44.995 247.657C46.9444 248.798 48.9735 249.807 51.0676 250.677C53.1589 251.553 55.3097 252.29 57.5049 252.883C59.7589 253.515 62.0809 253.894 64.4248 254.012V254.012Z" fill="#5E7C24"/>
<path d="M43.1173 215.626C43.4298 213.421 43.3735 211.183 42.9506 208.996C42.5784 206.935 41.9926 204.914 41.2021 202.966C40.419 201.015 39.4316 199.146 38.2552 197.388C37.0291 195.504 35.4943 193.824 33.7107 192.415C33.3913 194.619 33.4449 196.859 33.8694 199.047C34.2409 201.109 34.8293 203.128 35.6255 205.075C36.4146 207.024 37.4045 208.891 38.5803 210.649C39.8069 212.532 41.3388 214.212 43.1173 215.626Z" fill="#5E7C24"/>
<path d="M176.471 61.7389C167.713 62.2425 158.953 62.639 150.191 62.9284C141.429 63.2411 132.665 63.4554 123.9 63.6508C115.135 63.8146 106.37 63.9572 97.6018 64.002C88.8346 64.0704 80.065 64.03 71.293 63.8808C80.0506 63.3753 88.8107 62.978 97.5732 62.6888C106.335 62.3765 115.099 62.1622 123.864 61.9688C132.629 61.8071 141.395 61.6645 150.162 61.6201C158.93 61.5525 167.699 61.5921 176.471 61.7389Z" fill="#EBC136"/>
<path d="M105.936 87.189C97.1777 87.6926 88.4176 88.0892 79.6552 88.3787C70.8933 88.6914 62.1292 88.9057 53.3647 89.1009C44.5996 89.2647 35.834 89.4075 27.0662 89.4521C18.299 89.5207 9.52932 89.4804 0.757324 89.3311C9.51501 88.8254 18.2751 88.428 27.0376 88.1389C35.7995 87.8266 44.5635 87.6122 53.3281 87.4191C62.0933 87.2574 70.8589 87.1146 79.6267 87.0704C88.394 87.0026 97.1636 87.0421 105.936 87.189Z" fill="#EBC136"/>
<path d="M136.083 115.671C127.325 116.175 118.565 116.571 109.803 116.861C101.041 117.174 92.2767 117.388 83.5122 117.583C74.7471 117.747 65.9814 117.89 57.2137 117.934C48.4464 118.003 39.6768 117.963 30.9048 117.813C39.6625 117.308 48.4226 116.91 57.185 116.621C65.947 116.309 74.711 116.094 83.4755 115.901C92.2408 115.74 101.006 115.597 109.774 115.553C118.541 115.485 127.311 115.524 136.083 115.671Z" fill="#EBC136"/>
<path d="M453.732 258.356H23.4601C23.2291 258.356 23.0075 258.267 22.8441 258.109C22.6807 257.951 22.5889 257.737 22.5889 257.514C22.5889 257.291 22.6807 257.077 22.8441 256.919C23.0075 256.761 23.2291 256.672 23.4601 256.672H453.732C453.963 256.672 454.184 256.761 454.348 256.919C454.511 257.077 454.603 257.291 454.603 257.514C454.603 257.737 454.511 257.951 454.348 258.109C454.184 258.267 453.963 258.356 453.732 258.356Z" fill="#8C8686"/>
<path d="M308.484 109.534C316.893 109.534 316.907 96.9097 308.484 96.9097C300.075 96.9097 300.061 109.534 308.484 109.534Z" fill="#6F56A5"/>
<path d="M237.193 3.58682C239.838 3.1755 242.546 3.37724 245.094 4.17539C246.288 4.57349 250.657 6.02931 252.815 9.99541C253.635 11.5016 253.833 13.3201 254.231 16.957C254.478 19.2287 255.399 20.8496 255.422 23.6226C255.395 25.8697 255.033 28.1013 254.348 30.2489C253.322 33.6098 254.019 35.5086 253.498 36.1396C251.399 38.6825 244.941 36.7541 244.873 40.0503C244.832 42.0856 248.464 50.8407 248.413 53.2251C248.293 58.7813 238.639 53.0472 232.82 44.8088C232.556 44.435 228.609 42.2465 228.988 38.6442C229.191 36.7198 230.801 27.6847 230.628 26.5221C230.004 22.3199 227.805 21.825 226.03 16.7538C225.549 15.481 225.415 14.1101 225.64 12.7727C225.866 11.4354 226.443 10.1763 227.316 9.11619C229.835 6.21126 233.331 4.25409 237.193 3.58682V3.58682Z" fill="#D19E8A"/>
<path d="M253.365 21.594C253.853 21.5899 254.245 21.1111 254.239 20.5244C254.234 19.9377 253.834 19.4654 253.346 19.4695C252.857 19.4735 252.466 19.9523 252.471 20.539C252.476 21.1257 252.876 21.598 253.365 21.594Z" fill="#0A0709"/>
<path d="M245.392 21.6606C245.881 21.6565 246.272 21.1777 246.267 20.591C246.262 20.0043 245.862 19.532 245.374 19.536C244.885 19.5401 244.493 20.0189 244.499 20.6056C244.504 21.1923 244.904 21.6646 245.392 21.6606Z" fill="#0A0709"/>
<path d="M249.134 18.6656C249.242 18.6647 249.347 18.6335 249.437 18.5758C250.216 18.0464 251.143 17.7569 252.095 17.7454C253.048 17.7339 253.982 18.0008 254.774 18.5112C254.893 18.5956 255.042 18.631 255.188 18.6096C255.334 18.5882 255.466 18.5118 255.554 18.3971C255.641 18.2823 255.678 18.1387 255.657 17.9975C255.635 17.8564 255.556 17.7293 255.438 17.6441C254.457 17.0129 253.303 16.6788 252.124 16.6846C250.945 16.6903 249.795 17.0357 248.82 17.6764C248.72 17.7407 248.644 17.8346 248.603 17.9441C248.562 18.0537 248.56 18.1729 248.595 18.2842C248.63 18.3955 248.702 18.4927 248.799 18.5615C248.896 18.6302 249.014 18.6667 249.134 18.6656V18.6656Z" fill="#494752"/>
<path d="M240.87 18.7339C240.978 18.7329 241.083 18.7017 241.172 18.644C241.954 18.1203 242.88 17.8342 243.831 17.8224C244.782 17.8105 245.715 18.0736 246.51 18.5777C246.569 18.6199 246.636 18.6504 246.707 18.6676C246.778 18.6848 246.852 18.6883 246.924 18.6779C246.997 18.6675 247.066 18.6435 247.129 18.6071C247.192 18.5707 247.247 18.5228 247.29 18.466C247.334 18.4091 247.366 18.3446 247.383 18.2759C247.401 18.2073 247.405 18.136 247.394 18.066C247.383 17.996 247.358 17.9288 247.321 17.8681C247.283 17.8074 247.233 17.7545 247.175 17.7124C246.193 17.0812 245.039 16.7471 243.86 16.7529C242.681 16.7586 241.531 17.104 240.556 17.7447C240.456 17.8089 240.38 17.9028 240.339 18.0124C240.298 18.1219 240.295 18.2412 240.331 18.3525C240.366 18.4637 240.438 18.561 240.535 18.6297C240.632 18.6985 240.75 18.735 240.87 18.7339V18.7339Z" fill="#494752"/>
<path d="M248.376 18.8912C248.086 19.7889 248.131 20.7562 248.502 21.6255C248.824 22.4995 249.287 23.3188 249.874 24.0529L250.34 24.5567C250.397 24.6065 250.443 24.6668 250.476 24.734C250.508 24.8012 250.526 24.874 250.529 24.948C250.495 25.3117 250.314 25.6477 250.024 25.8829C249.313 26.3987 248.427 26.6377 247.542 26.5527C248.002 26.7302 248.499 26.7991 248.992 26.7535C249.485 26.708 249.96 26.5494 250.377 26.2908C250.607 26.1387 250.799 25.9397 250.941 25.708C251.082 25.4762 251.17 25.2174 251.197 24.9495C251.199 24.6453 251.081 24.3517 250.867 24.1284L250.417 23.6195C249.866 22.9321 249.392 22.1909 249.001 21.408C248.575 20.634 248.359 19.7678 248.376 18.8912Z" fill="#B5806D"/>
<path d="M233.889 19.3702C233.543 19.2737 233.174 19.2949 232.843 19.4303C232.512 19.5565 232.213 19.7475 231.962 19.9912C231.719 20.2305 231.52 20.5087 231.375 20.8135C231.23 21.1165 231.149 21.4446 231.138 21.7782C231.384 21.5675 231.617 21.3427 231.835 21.1049C232.056 20.8921 232.244 20.6651 232.461 20.4717C232.666 20.2674 232.883 20.0739 233.11 19.8923C233.353 19.6965 233.614 19.5218 233.889 19.3702V19.3702Z" fill="#B5806D"/>
<path d="M233.21 23.8058C233.439 23.5155 233.6 23.1816 233.685 22.8263C233.77 22.4709 233.775 22.1022 233.7 21.7447C233.637 21.3833 233.5 21.0375 233.297 20.7275C233.101 20.417 232.831 20.1566 232.508 19.9684C232.711 20.5895 232.878 21.2213 233.006 21.8606C233.114 22.5045 233.182 23.1541 233.21 23.8058Z" fill="#B5806D"/>
<path d="M238.654 27.7202C238.654 27.7202 237.135 21.6234 237.388 19.8722C237.74 17.4321 237.917 16.2121 237.606 15.2228C237.108 13.6393 237.907 13.426 238.922 11.7115C239.875 10.1023 242.881 11.3737 243.626 11.1007C245.717 10.3343 245.632 9.48165 247.05 9.38476C248.503 9.2854 249.568 8.9054 250.515 9.80418C251.482 10.7216 253.262 13.1667 253.692 12.7364C254.596 11.5528 255.145 10.1516 255.278 8.68652C255.276 7.24354 254.91 5.82279 254.212 4.54734C253.861 3.81007 252.554 1.06638 249.878 0.353095C248.337 -0.0578016 248.048 0.659951 244.724 0.87754C241.276 1.10333 241.162 0.359084 239.36 0.870001C237.365 1.43566 237.449 2.36264 234.048 4.19418C232.92 4.7821 231.76 5.31039 230.572 5.77673C226.297 7.56717 225.734 7.29118 224.755 8.22041C222.645 10.2238 223.023 13.6353 223.114 14.4594C223.371 16.7802 224.316 17.4705 226.391 21.1745C229.676 27.0403 229.049 29.5217 230.242 30.3382C230.827 30.7387 233.875 28.6072 233.852 27.5695C233.821 26.2092 232.803 25.7883 231.59 23.8318C230.744 22.4644 229.527 20.5013 230.202 18.7071C230.61 17.6226 231.078 17.9144 232.239 18.0087C233.814 18.1367 234.607 20.2481 235.251 21.7972C235.717 22.9183 235.924 24.1238 235.858 25.33C235.715 28.021 239.206 28.7865 238.654 27.7202Z" fill="#2E2C33"/>
<path d="M245.74 30.3219C245.74 30.3219 249.251 33.431 252.337 30.2675Z" fill="#9D6D5C"/>
<path d="M246.523 46.1295C246.523 46.1295 252.692 63.3608 229.103 37.7639L218.854 45.9851C216.73 47.7182 215.265 50.0859 214.691 52.7137C214.189 56.4415 213.687 60.1693 213.184 63.8972C211.275 78.0699 211.262 92.4209 213.145 106.597C213.653 110.42 214.161 114.243 214.668 118.066L258.739 123.912C256.26 115.713 254.796 107.259 254.378 98.7277C253.882 88.5156 255.191 84.1706 254.691 75.7004C254.003 65.4212 251.228 55.3733 246.523 46.1295V46.1295Z" fill="#FFBA55"/>
<path d="M252.951 114.891C252.153 114.449 251.34 114.049 250.538 113.628L248.185 112.291C246.653 111.359 245.188 110.327 243.802 109.202C242.414 108.088 241.159 106.829 240.059 105.447C239.516 104.751 239.032 104.013 238.613 103.241C238.167 102.475 237.827 101.655 237.604 100.803C237.857 102.583 238.547 104.279 239.616 105.749C240.658 107.236 241.914 108.573 243.345 109.719C244.76 110.87 246.29 111.882 247.912 112.74L250.385 113.925C251.243 114.248 252.09 114.59 252.951 114.891Z" fill="#E6952A"/>
<path d="M240.632 35.7927C243.537 37.7293 249.103 37.599 249.103 37.599L249.121 37.7241C246.959 37.9963 244.911 38.2016 244.873 40.0502C244.975 41.0844 245.203 42.1035 245.551 43.0866C241.75 41.018 240.632 35.7927 240.632 35.7927Z" fill="#B5806D"/>
<path d="M298.239 185.111L300.598 196.653L323.724 200.251L292.8 209.322L286.291 188.616L298.239 185.111Z" fill="#D19E8A"/>
<path d="M327.149 200.359L327.127 200.291C326.963 199.767 326.651 199.298 326.226 198.935C325.801 198.572 325.281 198.331 324.723 198.237L300.621 194.192C300.385 194.153 300.143 194.194 299.936 194.31C299.728 194.426 299.57 194.608 299.488 194.826L297.054 201.277C296.967 201.506 296.796 201.696 296.573 201.81C296.35 201.924 296.092 201.955 295.847 201.895L290.178 200.522C290.003 200.48 289.819 200.483 289.646 200.532C289.472 200.58 289.315 200.673 289.191 200.799C289.066 200.925 288.979 201.081 288.937 201.251C288.896 201.421 288.901 201.598 288.954 201.765L291.774 210.736C291.852 210.986 292.03 211.195 292.269 211.318C292.508 211.442 292.787 211.468 293.046 211.392L326.469 201.588C326.728 201.512 326.945 201.34 327.072 201.11C327.2 200.879 327.227 200.609 327.149 200.359V200.359Z" fill="#251D1B"/>
<path d="M213.826 109.669C213.826 109.669 206.784 139.822 220.242 139.281H271.407L285.191 193.019C285.191 193.019 290.49 195.108 295.091 194.177C298.251 193.538 300.974 190.626 302.867 189.137C302.867 189.137 292.797 112.095 273.748 109.756C249.986 106.837 213.826 109.669 213.826 109.669Z" fill="#808B49"/>
<path d="M271.407 139.281C272.587 137.851 273.64 136.328 274.558 134.729C274.986 133.939 275.425 133.15 275.809 132.317C276.215 131.491 276.563 130.635 277.03 129.757C277.16 130.725 277.111 131.708 276.885 132.661C276.677 133.622 276.321 134.547 275.829 135.406C275.338 136.27 274.712 137.055 273.971 137.733C273.251 138.432 272.373 138.962 271.407 139.281Z" fill="#5E7C24"/>
<path d="M230.478 56.971C230.478 56.971 232.474 52.3757 258.597 88.618L248.671 101.062C248.671 101.062 234.26 89.6061 227.732 79.7167" fill="#FFBA55"/>
<path d="M313.662 93.1224L336.702 82.5068L337.884 106.831L315.73 99.9051L313.662 93.1224Z" fill="#8E6CD8"/>
<path d="M179.258 257.514C198.066 257.514 213.313 242.745 213.313 224.528C213.313 206.31 198.066 191.542 179.258 191.542C160.45 191.542 145.203 206.31 145.203 224.528C145.203 242.745 160.45 257.514 179.258 257.514Z" fill="#1E1D22"/>
<path d="M179.258 241.647C189.019 241.647 196.932 233.983 196.932 224.528C196.932 215.073 189.019 207.409 179.258 207.409C169.497 207.409 161.583 215.073 161.583 224.528C161.583 233.983 169.497 241.647 179.258 241.647Z" fill="#848384"/>
<path d="M178.586 228.817C181.919 228.817 181.924 223.813 178.586 223.813C175.253 223.813 175.247 228.817 178.586 228.817Z" fill="white"/>
<path d="M364.034 257.514C382.842 257.514 398.089 242.745 398.089 224.528C398.089 206.31 382.842 191.542 364.034 191.542C345.226 191.542 329.979 206.31 329.979 224.528C329.979 242.745 345.226 257.514 364.034 257.514Z" fill="#1E1D22"/>
<path d="M364.034 241.647C373.795 241.647 381.708 233.983 381.708 224.528C381.708 215.073 373.795 207.409 364.034 207.409C354.272 207.409 346.359 215.073 346.359 224.528C346.359 233.983 354.272 241.647 364.034 241.647Z" fill="#848384"/>
<path d="M363.361 231.365C370.089 231.365 370.1 221.265 363.361 221.265C356.634 221.265 356.623 231.365 363.361 231.365Z" fill="#1E1D22"/>
<path d="M407.573 220.77C407.573 220.77 376.535 205.739 321.357 225.781H222.797C222.797 225.781 190.035 245.822 134.857 230.791C134.857 230.791 127.96 219.1 145.203 194.047C145.203 194.047 155.549 165.655 162.446 160.644L257.525 160.692C257.525 160.692 255.306 207.06 289.793 210.4C324.279 213.74 320.831 182.007 320.831 182.007L316.266 111.778C316.187 107.324 315.873 102.877 315.324 98.454C314.697 93.2967 312.885 94.0138 315.041 95.0576C318.489 96.7278 352.395 132.251 359.292 182.356C359.292 182.356 398.951 177.346 407.573 220.77Z" fill="#8E6CD8"/>
<path d="M359.292 182.356C354.203 183.633 349.347 185.654 344.891 188.35C342.705 189.675 340.634 191.171 338.699 192.821C336.756 194.446 334.977 196.246 333.387 198.197C331.758 200.121 330.308 202.181 329.053 204.352C328.706 204.878 328.423 205.439 328.123 205.991C327.834 206.549 327.503 207.089 327.248 207.663C326.732 208.81 326.153 209.935 325.698 211.114C323.808 215.87 322.355 220.778 321.357 225.78C321.228 220.568 321.972 215.369 323.56 210.386C325.138 205.312 327.707 200.577 331.127 196.436C336.326 190.232 343.383 185.733 351.331 183.553C353.921 182.827 356.596 182.424 359.292 182.356V182.356Z" fill="#6F56A5"/>
<path d="M222.797 225.78C225.857 221.258 228.248 216.345 229.901 211.184C231.511 206.095 232.197 200.662 230.944 195.627C229.621 190.597 226.43 186.212 221.977 183.307C221.704 183.119 221.449 182.909 221.162 182.738L220.301 182.226C219.722 181.89 219.17 181.517 218.572 181.21C217.349 180.633 216.194 179.961 214.899 179.487L213 178.715C212.387 178.469 211.762 178.253 211.126 178.069C209.84 177.682 208.516 177.364 207.183 177.092C201.807 176.005 196.301 175.645 190.823 176.022C188.075 176.197 185.341 176.531 182.634 177.021C179.924 177.515 177.252 178.195 174.597 178.942C163.971 182.305 154.027 187.415 145.203 194.047L148.347 191.324L151.638 188.758L155.045 186.326C156.22 185.569 157.382 184.786 158.574 184.047C163.395 181.126 168.529 178.717 173.886 176.863C179.292 175.03 184.914 173.857 190.621 173.372C196.363 172.909 202.143 173.238 207.789 174.349C209.201 174.648 210.602 174.996 211.995 175.427C212.681 175.64 213.407 175.88 214.081 176.164L216.058 176.987C217.39 177.488 218.653 178.222 219.945 178.851C220.583 179.186 221.185 179.594 221.806 179.962C222.435 180.324 223.036 180.729 223.605 181.174C228.49 184.513 231.897 189.505 233.149 195.158C233.707 197.934 233.785 200.781 233.379 203.581C232.979 206.331 232.262 209.028 231.241 211.624C230.217 214.183 228.99 216.663 227.569 219.039C226.177 221.411 224.58 223.666 222.797 225.78V225.78Z" fill="#6F56A5"/>
<path d="M158.671 161.966H252.763C258.477 161.966 263.109 156.888 263.109 150.624C263.109 144.36 258.477 139.281 252.763 139.281H158.671C152.957 139.281 148.325 144.36 148.325 150.624C148.325 156.888 152.957 161.966 158.671 161.966Z" fill="#6F56A5"/>
<path d="M211.417 189.137C209.85 190.919 208.088 192.531 206.16 193.943C204.245 195.38 202.23 196.688 200.129 197.857C199.101 198.486 198.011 198.996 196.935 199.538C195.866 200.096 194.754 200.559 193.651 201.048C193.101 201.295 192.543 201.524 191.986 201.757L190.287 202.38C189.148 202.779 188.027 203.233 186.873 203.587C182.269 205.031 177.545 206.084 172.752 206.735C170.372 207.115 167.95 207.21 165.558 207.417C163.15 207.489 160.741 207.492 158.342 207.409C160.695 206.87 163.048 206.501 165.382 206.049L168.867 205.32C170.026 205.078 171.194 204.89 172.336 204.582C173.484 204.299 174.631 204.026 175.783 203.778C176.94 203.55 178.06 203.177 179.198 202.882C180.326 202.555 181.486 202.333 182.599 201.962L185.961 200.924C187.09 200.602 188.182 200.181 189.295 199.814L190.955 199.24C191.499 199.025 192.04 198.806 192.59 198.604C194.799 197.819 196.93 196.86 199.077 195.927C200.137 195.434 201.21 194.957 202.249 194.421L203.827 193.642L205.372 192.804C207.459 191.696 209.477 190.472 211.417 189.137V189.137Z" fill="#6F56A5"/>
<path d="M215.45 200.154C213.884 201.936 212.121 203.547 210.193 204.96C208.278 206.397 206.263 207.704 204.162 208.874C203.135 209.503 202.045 210.013 200.968 210.554C199.899 211.113 198.787 211.575 197.684 212.065C197.134 212.312 196.576 212.541 196.019 212.774L194.32 213.397C193.182 213.796 192.06 214.25 190.906 214.604C186.303 216.048 181.578 217.101 176.785 217.752C174.405 218.132 171.983 218.227 169.592 218.433C167.183 218.506 164.774 218.509 162.375 218.425C164.728 217.887 167.081 217.518 169.415 217.066L172.9 216.337C174.06 216.094 175.227 215.907 176.37 215.599C177.517 215.316 178.664 215.043 179.816 214.795C180.973 214.567 182.093 214.194 183.231 213.899C184.359 213.572 185.519 213.35 186.632 212.979L189.994 211.941C191.123 211.618 192.215 211.197 193.328 210.831L194.989 210.257C195.532 210.042 196.073 209.822 196.623 209.621C198.832 208.835 200.963 207.876 203.11 206.943C204.17 206.451 205.243 205.974 206.282 205.438L207.86 204.658L209.405 203.821C211.492 202.713 213.511 201.489 215.45 200.154V200.154Z" fill="#6F56A5"/>
<path d="M337.763 106.836C339.923 106.738 341.409 101.214 341.082 94.4967C340.756 87.7797 338.741 82.4139 336.581 82.5118C334.422 82.6097 332.936 88.1343 333.262 94.8512C333.589 101.568 335.604 106.934 337.763 106.836Z" fill="#FFBA55"/>
<path d="M336.581 82.5119C336.312 82.5859 336.063 82.7162 335.851 82.8936C335.64 83.0709 335.471 83.291 335.357 83.5383C335.09 84.0113 334.884 84.5141 334.743 85.0355C334.45 86.0881 334.248 87.1622 334.137 88.247C333.724 92.6211 333.939 97.0295 334.776 101.347C334.991 102.417 335.297 103.468 335.69 104.489C335.881 104.995 336.134 105.477 336.446 105.924C336.583 106.16 336.772 106.364 337 106.522C337.227 106.679 337.488 106.786 337.763 106.836C337.459 106.855 337.154 106.806 336.873 106.693C336.592 106.579 336.342 106.404 336.143 106.18C335.715 105.768 335.347 105.301 335.05 104.792C334.47 103.786 334.009 102.721 333.677 101.616C332.379 97.213 332.155 92.5798 333.021 88.0793C333.245 86.9489 333.6 85.8465 334.08 84.7931C334.326 84.2597 334.647 83.7613 335.033 83.3116C335.209 83.0715 335.441 82.8744 335.71 82.7356C335.978 82.5968 336.277 82.5202 336.581 82.5119V82.5119Z" fill="#E6952A"/>
<path d="M327.255 108.251C326.179 107.339 325.19 106.38 324.219 105.413L321.339 102.514C320.394 101.544 319.431 100.597 318.438 99.6995C317.945 99.2512 317.425 98.8325 316.879 98.4459C316.345 98.0346 315.713 97.7591 315.041 97.6447C315.766 97.4743 316.53 97.5418 317.211 97.8365C317.89 98.1003 318.537 98.4364 319.138 98.8388C320.317 99.6284 321.406 100.535 322.388 101.545C323.363 102.54 324.265 103.599 325.086 104.715C325.924 105.824 326.65 107.008 327.255 108.251Z" fill="#6F56A5"/>
<path d="M194.809 136.549H143.033C142.286 136.549 141.57 136.262 141.041 135.752C140.513 135.241 140.216 134.549 140.216 133.828V97.1965H197.625V133.828C197.625 134.549 197.329 135.241 196.8 135.752C196.272 136.262 195.556 136.549 194.809 136.549Z" fill="#584432"/>
<path d="M175.504 108.531C175.319 108.257 175.048 108.249 174.739 108.24C174.704 108.239 174.669 108.238 174.633 108.236C174.606 108.235 174.575 108.236 174.544 108.236C174.419 108.238 174.272 108.24 174.199 108.139C174.113 108.021 174.121 107.794 174.128 107.606C174.13 107.547 174.132 107.492 174.131 107.445C174.119 107.009 174.094 106.546 173.919 106.391C173.788 106.275 173.394 106.291 173.032 106.306C172.914 106.311 172.8 106.316 172.698 106.316H164.975C164.819 106.316 164.656 106.303 164.496 106.291C164.184 106.268 163.883 106.245 163.669 106.316C163.358 106.418 163.337 106.956 163.318 107.462L163.316 107.49C163.3 107.908 163.192 108.23 162.836 108.198C162.422 108.161 162.01 108.149 161.823 108.51C161.602 108.938 161.648 109.386 161.729 110.188C161.741 110.303 161.754 110.424 161.766 110.554H175.623C175.631 110.459 175.64 110.366 175.648 110.273C175.713 109.552 175.769 108.923 175.504 108.531Z" fill="#785A3F"/>
<path fill-rule="evenodd" clip-rule="evenodd" d="M162.845 111.35C163.062 114.176 163.276 117.005 163.49 119.835L163.49 119.836C163.606 121.373 163.722 122.909 163.839 124.445H164.281C164.311 124.685 164.346 124.982 164.382 125.295C164.456 125.93 164.537 126.632 164.606 127.063H164.655C165.105 126.904 168.219 125.62 168.22 120.508C168.219 120.493 168.22 120.479 168.221 120.464H167.452C167.415 120.464 167.379 120.452 167.35 120.43C167.32 120.408 167.299 120.378 167.29 120.344C167.215 120.165 167.154 119.981 167.109 119.794C166.656 120.04 166.297 120.417 166.082 120.869C165.878 120.406 165.851 119.888 166.007 119.408C166.162 118.927 166.489 118.514 166.932 118.24C166.937 116.748 167.516 115.31 168.559 114.198L168.575 114.185C168.605 114.159 168.644 114.145 168.684 114.145C168.708 114.145 168.73 114.15 168.752 114.159C168.773 114.168 168.792 114.182 168.808 114.198C169.863 115.312 170.439 116.764 170.421 118.264C170.871 118.53 171.205 118.943 171.361 119.426C171.517 119.91 171.483 120.43 171.267 120.892C171.053 120.438 170.693 120.061 170.24 119.816C170.212 119.998 170.161 120.175 170.088 120.345C170.063 120.418 170.012 120.464 169.961 120.464H169.141C169.142 120.473 169.143 120.482 169.144 120.49L169.144 120.492L169.144 120.497C169.145 120.504 169.145 120.512 169.144 120.519C169.155 125.778 172.466 126.971 172.745 127.063H172.84C172.865 126.649 172.944 126.077 173.021 125.52C173.075 125.136 173.127 124.759 173.16 124.445H173.607C173.75 122.51 173.897 120.581 174.045 118.652L174.045 118.651L174.045 118.65C174.233 116.183 174.421 113.715 174.601 111.236H162.874C162.84 111.243 162.842 111.296 162.845 111.35ZM168.684 114.145L168.683 114.145H168.685L168.684 114.145Z" fill="#785A3F"/>
<path d="M204.576 88.3649V93.3453C204.625 94.3166 204.273 95.2669 203.599 95.9888C202.924 96.7107 201.982 97.1454 200.977 97.198H136.862C135.858 97.1451 134.916 96.71 134.242 95.9881C133.569 95.2661 133.219 94.3159 133.269 93.3453V88.3649C133.22 87.3953 133.571 86.4466 134.244 85.726C134.918 85.0054 135.859 84.5715 136.862 84.519H200.977C201.981 84.5712 202.923 85.0048 203.597 85.7253C204.271 86.4458 204.623 87.3947 204.576 88.3649V88.3649Z" fill="#785A3F"/>
<path d="M196.991 136.573H162.843L155.141 128.751C155.027 128.629 154.886 128.533 154.729 128.468C154.572 128.404 154.402 128.373 154.232 128.378C154.062 128.383 153.894 128.423 153.741 128.496C153.589 128.569 153.454 128.673 153.347 128.801C153.113 129.073 152.99 129.417 152.998 129.77C153.007 130.123 153.147 130.462 153.394 130.723L159.153 136.573H149.966V130.399C149.984 130.228 149.965 130.054 149.909 129.89C149.854 129.726 149.763 129.575 149.643 129.447C149.524 129.319 149.378 129.217 149.214 129.147C149.051 129.076 148.874 129.04 148.696 129.04C148.517 129.04 148.341 129.076 148.177 129.147C148.014 129.217 147.868 129.319 147.748 129.447C147.629 129.575 147.538 129.726 147.483 129.89C147.427 130.054 147.408 130.228 147.426 130.399V136.573H141.154C140.805 136.608 140.483 136.766 140.248 137.017C140.014 137.268 139.884 137.594 139.884 137.932C139.884 138.27 140.014 138.596 140.248 138.847C140.483 139.098 140.805 139.256 141.154 139.291H147.426V145.465C147.408 145.636 147.427 145.81 147.483 145.974C147.538 146.138 147.629 146.289 147.748 146.417C147.868 146.545 148.014 146.647 148.177 146.717C148.341 146.788 148.517 146.824 148.696 146.824C148.874 146.824 149.051 146.788 149.214 146.717C149.378 146.647 149.524 146.545 149.643 146.417C149.763 146.289 149.854 146.138 149.909 145.974C149.965 145.81 149.984 145.636 149.966 145.465V139.291H161.829L168.226 145.788C168.341 145.91 168.482 146.006 168.639 146.07C168.796 146.135 168.965 146.166 169.135 146.161C169.306 146.156 169.473 146.116 169.626 146.043C169.779 145.97 169.913 145.866 170.021 145.738C170.254 145.466 170.378 145.122 170.369 144.769C170.361 144.415 170.22 144.077 169.974 143.816L165.519 139.291H196.991C197.339 139.256 197.662 139.098 197.896 138.847C198.131 138.596 198.261 138.27 198.261 137.932C198.261 137.594 198.131 137.268 197.896 137.017C197.662 136.766 197.339 136.608 196.991 136.573V136.573Z" fill="#464646"/>
<path d="M258.303 89.3225L297.61 94.3847C297.61 94.3847 313.664 88.6301 316.934 96.7912C317.366 97.9185 317.378 99.1557 316.969 100.291C315.989 103.13 313.671 108.735 311.973 104.058L310.227 99.2492C310.227 99.2492 304.202 103.28 298.38 101.281C296.277 100.559 268.127 105.855 252.951 102.28L248.671 101.062L258.303 89.3225Z" fill="#D19E8A"/>
<path d="M230.478 56.9709C230.603 56.7638 230.884 56.7636 231.103 56.7849C231.331 56.8263 231.554 56.8884 231.77 56.9702C232.186 57.1627 232.586 57.3876 232.964 57.6428C233.35 57.8857 233.718 58.1539 234.066 58.4456C234.415 58.7339 234.791 58.9979 235.117 59.3084C236.479 60.4997 237.768 61.7655 239.019 63.0612C241.516 65.6605 243.816 68.4172 246.123 71.1665C248.413 73.9288 250.625 76.7496 252.79 79.6006C254.991 82.4282 257.054 85.3476 259.189 88.2196L259.496 88.6334L259.168 89.0434L254.194 95.2564L249.191 101.448L248.767 101.973L248.254 101.551C246.297 99.9437 244.406 98.295 242.564 96.5827C240.722 94.874 238.912 93.1338 237.16 91.3391C235.407 89.5455 233.708 87.7005 232.123 85.7653C230.519 83.8474 229.052 81.8265 227.732 79.7165C229.215 81.7104 230.808 83.6259 232.504 85.4544C234.203 87.2758 235.981 89.0261 237.772 90.7605C239.577 92.4832 241.438 94.1503 243.328 95.784C245.227 97.4053 247.138 99.0287 249.088 100.572L248.151 100.674L253.074 94.4232L258.025 88.1926L258.005 89.016C255.902 86.1327 253.83 83.2266 251.695 80.367C249.591 77.4848 247.422 74.6504 245.263 71.808C243.073 68.9911 240.864 66.1814 238.504 63.5005C237.34 62.1466 236.138 60.8225 234.861 59.5699C234.555 59.2426 234.203 58.966 233.875 58.6613C233.549 58.3565 233.204 58.0716 232.841 57.8082C232.49 57.5306 232.117 57.2811 231.724 57.0623C231.522 56.9682 231.312 56.8922 231.095 56.8352C230.886 56.8001 230.618 56.7761 230.478 56.9709Z" fill="#E6952A"/>
<path d="M148.747 138.826C149.007 138.817 149.253 138.711 149.433 138.53C149.614 138.35 149.715 138.108 149.715 137.857C149.715 137.606 149.614 137.365 149.433 137.184C149.253 137.004 149.007 136.898 148.747 136.889C148.487 136.898 148.241 137.004 148.06 137.184C147.879 137.365 147.778 137.606 147.778 137.857C147.778 138.108 147.879 138.35 148.06 138.53C148.241 138.711 148.487 138.817 148.747 138.826Z" fill="#616161"/>
<path d="M148.747 146.103C149.007 146.094 149.253 145.988 149.433 145.807C149.614 145.627 149.715 145.385 149.715 145.134C149.715 144.883 149.614 144.642 149.433 144.461C149.253 144.28 149.007 144.175 148.747 144.166C148.487 144.175 148.241 144.28 148.06 144.461C147.879 144.642 147.778 144.883 147.778 145.134C147.778 145.385 147.879 145.627 148.06 145.807C148.241 145.988 148.487 146.094 148.747 146.103V146.103Z" fill="#616161"/>
<path d="M154.46 130.906C154.72 130.898 154.966 130.792 155.147 130.611C155.327 130.431 155.428 130.189 155.428 129.938C155.428 129.687 155.327 129.445 155.147 129.265C154.966 129.084 154.72 128.978 154.46 128.97C154.2 128.978 153.954 129.084 153.773 129.265C153.593 129.445 153.492 129.687 153.492 129.938C153.492 130.189 153.593 130.431 153.773 130.611C153.954 130.792 154.2 130.898 154.46 130.906V130.906Z" fill="#616161"/>
<path d="M148.747 131.569C149.006 131.56 149.253 131.454 149.433 131.274C149.614 131.093 149.715 130.852 149.715 130.6C149.715 130.349 149.614 130.108 149.433 129.927C149.253 129.747 149.006 129.641 148.747 129.632C148.487 129.641 148.241 129.747 148.06 129.927C147.879 130.108 147.778 130.349 147.778 130.6C147.778 130.852 147.879 131.093 148.06 131.274C148.241 131.454 148.487 131.56 148.747 131.569V131.569Z" fill="#616161"/>
<path d="M161.774 138.826C162.034 138.817 162.28 138.711 162.461 138.53C162.641 138.35 162.742 138.108 162.742 137.857C162.742 137.606 162.641 137.365 162.461 137.184C162.28 137.004 162.034 136.898 161.774 136.889C161.514 136.898 161.268 137.004 161.087 137.184C160.907 137.365 160.806 137.606 160.806 137.857C160.806 138.108 160.907 138.35 161.087 138.53C161.268 138.711 161.514 138.817 161.774 138.826Z" fill="#616161"/>
<path d="M168.921 138.569C169.181 138.56 169.427 138.454 169.608 138.274C169.788 138.093 169.889 137.852 169.889 137.6C169.889 137.349 169.788 137.108 169.608 136.927C169.427 136.747 169.181 136.641 168.921 136.632C168.661 136.641 168.415 136.747 168.234 136.927C168.054 137.108 167.953 137.349 167.953 137.6C167.953 137.852 168.054 138.093 168.234 138.274C168.415 138.454 168.661 138.56 168.921 138.569Z" fill="#616161"/>
<path d="M168.921 145.654C169.181 145.646 169.427 145.54 169.608 145.359C169.788 145.178 169.889 144.937 169.889 144.686C169.889 144.435 169.788 144.193 169.608 144.013C169.427 143.832 169.181 143.726 168.921 143.718C168.661 143.726 168.415 143.832 168.234 144.013C168.054 144.193 167.953 144.435 167.953 144.686C167.953 144.937 168.054 145.178 168.234 145.359C168.415 145.54 168.661 145.646 168.921 145.654V145.654Z" fill="#616161"/>
<path d="M141.814 138.826C142.074 138.817 142.32 138.711 142.501 138.53C142.681 138.35 142.782 138.108 142.782 137.857C142.782 137.606 142.681 137.365 142.501 137.184C142.32 137.004 142.074 136.898 141.814 136.889C141.554 136.898 141.308 137.004 141.127 137.184C140.947 137.365 140.846 137.606 140.846 137.857C140.846 138.108 140.947 138.35 141.127 138.53C141.308 138.711 141.554 138.817 141.814 138.826Z" fill="#616161"/>
<path d="M195.904 138.826C196.164 138.817 196.41 138.711 196.591 138.53C196.771 138.35 196.872 138.108 196.872 137.857C196.872 137.606 196.771 137.365 196.591 137.184C196.41 137.004 196.164 136.898 195.904 136.889C195.644 136.898 195.398 137.004 195.217 137.184C195.037 137.365 194.936 137.606 194.936 137.857C194.936 138.108 195.037 138.35 195.217 138.53C195.398 138.711 195.644 138.817 195.904 138.826Z" fill="#616161"/>
</svg>
